<svg width="18" height="18" viewBox="0 0 18 18" fill="none" xmlns="http://www.w3.org/2000/svg">
<path d="M13.5004 8.80491C13.4723 8.70314 13.423 8.60845 13.3558 8.52702C13.2886 8.4456 13.205 8.37928 13.1104 8.33241L10.5679 7.07241L11.2504 2.35491C11.2728 2.19142 11.2407 2.02509 11.159 1.88169C11.0773 1.7383 10.9506 1.62585 10.7985 1.56178C10.6465 1.4977 10.4775 1.48557 10.3178 1.52727C10.1581 1.56896 10.0167 1.66216 9.91535 1.79241L4.66535 8.54241C4.59409 8.63342 4.54483 8.73966 4.52141 8.85285C4.498 8.96603 4.50106 9.0831 4.53035 9.19491C4.56346 9.30677 4.621 9.40988 4.69883 9.49678C4.77665 9.58369 4.87281 9.65221 4.98035 9.69741L8.18285 10.9799L7.50035 15.6449C7.47715 15.8124 7.5112 15.9827 7.59696 16.1284C7.68273 16.274 7.81518 16.3865 7.97285 16.4474C8.06074 16.4839 8.15522 16.5017 8.25035 16.4999C8.37388 16.4993 8.49534 16.4681 8.60394 16.4093C8.71254 16.3504 8.80491 16.2656 8.87285 16.1624L13.3729 9.41241C13.4362 9.32612 13.4804 9.22726 13.5024 9.12247C13.5244 9.01769 13.5237 8.90941 13.5004 8.80491Z" fill="#55E7FF"/>
</svg>










