<svg width="132" height="24" viewBox="0 0 132 24" fill="none" xmlns="http://www.w3.org/2000/svg">
<g clip-path="url(#clip0_68_46294)">
<path d="M15.3194 13.1274H8.79297V15.91H15.3194V13.1274Z" fill="#55E7FF"/>
<path d="M21.6782 0H2.40806C1.07863 0 0 1.07468 0 2.39925V21.5989C0 22.9253 1.07863 23.9981 2.40806 23.9981H21.6782C23.0076 23.9981 24.0862 22.9234 24.0862 21.5989V2.39925C24.0862 1.0728 23.0076 0 21.6782 0ZM17.7993 15.9117H15.3177V18.1663H8.57434C7.29771 18.1663 6.28697 17.1592 6.28697 15.9117V13.1292C6.28697 11.8816 7.29771 10.8727 8.57434 10.8727H15.3177V8.09018H7.53908V5.8356H15.5345C16.7866 5.8356 17.7993 6.84265 17.7993 8.09018V15.9136V15.9117Z" fill="#55E7FF"/>
<path d="M48.6567 0H29.3866C28.0553 0 26.9785 1.07468 26.9785 2.39925V21.5989C26.9785 22.9253 28.0571 23.9981 29.3866 23.9981H48.6567C49.9861 23.9981 51.0647 22.9234 51.0647 21.5989V2.39925C51.0647 1.0728 49.9861 0 48.6567 0ZM44.4157 8.32879C44.4157 9.69657 43.2843 10.8013 41.9115 10.8013V13.0803C43.2843 13.0803 44.4157 14.1851 44.4157 15.551V18.1663H41.9115V13.0784H36.1073V18.1663H33.6257V5.83372H36.1073V10.8013H41.9115V5.83372H44.4157V8.32879Z" fill="#55E7FF"/>
<path d="M75.6332 0H56.3631C55.0318 0 53.9551 1.07468 53.9551 2.39925V21.5989C53.9551 22.9253 55.0337 23.9981 56.3631 23.9981H75.6332C76.9627 23.9981 78.0413 22.9234 78.0413 21.5989V2.39925C78.0413 1.0728 76.9627 0 75.6332 0ZM67.238 18.1663H64.7564V5.83372H67.238V18.1682V18.1663Z" fill="#55E7FF"/>
<path d="M102.612 0H83.3416C82.0103 0 80.9336 1.07468 80.9336 2.39925V21.5989C80.9336 22.9253 82.0122 23.9981 83.3416 23.9981H102.612C103.941 23.9981 105.02 22.9234 105.02 21.5989V2.39925C105.02 1.0728 103.941 0 102.612 0ZM91.3031 18.1663H88.7989V10.5589C88.7989 9.19117 89.9303 8.08643 91.3031 8.08643V18.1644V18.1663ZM97.1564 8.0883H91.3522V5.83372H97.1564V8.0883Z" fill="#55E7FF"/>
<path d="M129.592 0H110.322C108.991 0 107.914 1.07468 107.914 2.39925V21.5989C107.914 22.9234 108.993 23.9981 110.322 23.9981H129.592C130.922 23.9981 132 22.9234 132 21.5989V2.39925C132 1.0728 130.922 0 129.592 0ZM125.713 15.9117H123.232V18.1663H116.488C115.212 18.1663 114.201 17.1592 114.201 15.9117V13.1292C114.201 11.8816 115.212 10.8727 116.488 10.8727H123.232V8.09018H115.453V5.8356H123.449C124.701 5.8356 125.713 6.84265 125.713 8.09018V15.9136V15.9117Z" fill="#55E7FF"/>
<path d="M123.232 13.1274H116.705V15.91H123.232V13.1274Z" fill="#55E7FF"/>
</g>
<defs>
<clipPath id="clip0_68_46294">
<rect width="132" height="24" fill="white"/>
</clipPath>
</defs>
</svg>
